<?xml version="1.0" encoding="iso-8859-1"?>
<!-- Generator: Adobe Illustrator 19.0.0, SVG Export Plug-In . SVG Version: 6.00 Build 0)  -->
<svg xmlns="http://www.w3.org/2000/svg" xmlns:xlink="http://www.w3.org/1999/xlink" version="1.1" id="Layer_1" x="0px" y="0px" viewBox="0 0 512 512" style="enable-background:new 0 0 512 512;" xml:space="preserve" width="512" height="512">
<g>
	<path d="M210,301h242v-90H210v-40.848L59.767,256L210,341.848V301z M180,290.152L120.233,256L180,221.848V241h242v30H180V290.152z"/>
	<path d="M256,512c140.96,0,256-115.049,256-256C512,115.041,396.952,0,256,0C115.04,0,0,115.049,0,256   C0,396.959,115.048,512,256,512z M256,30c124.617,0,226,101.383,226,226S380.617,482,256,482S30,380.617,30,256   C30,131.383,131.383,30,256,30z"/>
</g>















</svg>
